<?xml version="1.0" encoding="utf-8"?>
<!-- Generator: Adobe Illustrator 16.0.4, SVG Export Plug-In . SVG Version: 6.00 Build 0)  -->
<!DOCTYPE svg PUBLIC "-//W3C//DTD SVG 1.1//EN" "http://www.w3.org/Graphics/SVG/1.1/DTD/svg11.dtd">
<svg version="1.1" id="Layer_1" xmlns="http://www.w3.org/2000/svg" xmlns:xlink="http://www.w3.org/1999/xlink" x="0px" y="0px"
	 width="960px" height="560px" viewBox="0 0 960 560" enable-background="new 0 0 960 560" xml:space="preserve">
<g>
	<defs>
		<rect id="SVGID_1_" width="960" height="560"/>
	</defs>
	<clipPath id="SVGID_2_">
		<use xlink:href="#SVGID_1_"  overflow="visible"/>
	</clipPath>
	<g clip-path="url(#SVGID_2_)">
		<text transform="matrix(1 0 0 1 23.2446 68.5581)" font-family="'LeagueGothic-Regular'" font-size="72">NETFLIX USERS </text>
	</g>
</g>
<text transform="matrix(1 0 0 1 23.2446 154.958)" fill="#E02F2F" font-family="'LeagueGothic-Regular'" font-size="72">VS</text>
<text transform="matrix(1 0 0 1 73.1411 154.958)" font-family="'LeagueGothic-Regular'" font-size="72"> </text>
<text transform="matrix(1 0 0 1 23.2446 241.3579)"><tspan x="0" y="0" font-family="'LeagueGothic-Regular'" font-size="72">O</tspan><tspan x="24.839" y="0" font-family="'LeagueGothic-Regular'" font-size="72">THER </tspan></text>
<text transform="matrix(1 0 0 1 23.2446 327.7578)"><tspan x="0" y="0" font-family="'LeagueGothic-Regular'" font-size="72">STR</tspan><tspan x="73.438" y="0" font-family="'LeagueGothic-Regular'" font-size="72">E</tspan><tspan x="95.686" y="0" font-family="'LeagueGothic-Regular'" font-size="72">AMING </tspan></text>
<text transform="matrix(1 0 0 1 23.2446 414.1582)" font-family="'LeagueGothic-Regular'" font-size="72">SERVICES</text>
<text transform="matrix(1.1528 0 0 1 392.5776 504.7207)" font-family="'LeagueGothic-Regular'" font-size="62.4549">2015</text>
<rect x="763.636" y="2.766" transform="matrix(0.9311 -0.3647 0.3647 0.9311 31.3087 283.299)" fill="none" stroke="#020000" stroke-miterlimit="10" width="4" height="112"/>
<rect x="816.648" y="2.766" transform="matrix(0.954 0.2999 -0.2999 0.954 55.3016 -242.7972)" fill="none" stroke="#020000" stroke-miterlimit="10" width="4.001" height="112"/>
<text transform="matrix(1 0 0 1 738.334 446.334)" font-family="'LeagueGothic-Regular'" font-size="72">2016</text>
<g>
	<defs>
		<rect id="SVGID_3_" width="960" height="560"/>
	</defs>
	<clipPath id="SVGID_4_">
		<use xlink:href="#SVGID_3_"  overflow="visible"/>
	</clipPath>
	<path clip-path="url(#SVGID_4_)" fill="#2D2A2A" d="M940.333,360.171c0,5.612-4.745,10.162-10.598,10.162h-1.935
		c-98.181,0-196.359,0-294.539,0c-1.431,0-2.86,0-4.291,0c-5.854,0-10.599-4.55-10.599-10.162v-3.32V121.674v-6.512
		c0-5.612,4.745-10.162,10.599-10.162c2.602,0,5.205,0,7.807,0c95.503,0,191.007,0,286.511,0c2.149,0,4.298,0,6.447,0
		c5.853,0,10.598,4.55,10.598,10.162v7.41v232.592V360.171z"/>
	<path clip-path="url(#SVGID_4_)" fill="#DBD7D7" d="M915.01,338.22c0,4.229-3.783,7.659-8.45,7.659h-2.345
		c-82.952,0-165.904,0-248.856,0c-1.778,0-3.559,0-5.339,0c-3.492,0-6.324-2.566-6.324-5.732v-8.644V149.851
		c0-3.177,0-9.531,5.562-9.531h7.771h245.435h3.732c4.868,0,8.814,3.577,8.814,7.988c0,1.796,0,3.591,0,5.386
		c0,58.009,0,116.017,0,174.026C915.01,331.22,915.01,334.72,915.01,338.22"/>
	<path clip-path="url(#SVGID_4_)" fill="none" stroke="#020000" stroke-miterlimit="10" d="M915.01,338.22
		c0,4.229-3.783,7.659-8.45,7.659h-2.345c-82.952,0-165.904,0-248.856,0c-1.778,0-3.559,0-5.339,0c-3.492,0-6.324-2.566-6.324-5.732
		v-8.644V149.851c0-3.177,0-9.531,5.562-9.531h7.771h245.435h3.732c4.868,0,8.814,3.577,8.814,7.988c0,1.796,0,3.591,0,5.386
		c0,58.009,0,116.017,0,174.026C915.01,331.22,915.01,334.72,915.01,338.22z"/>
	<path clip-path="url(#SVGID_4_)" d="M520.949,401.786c-89.967,27.946-152.33,15.37-190.771,0c-2.67-1.068-5.302-2.179-7.896-3.333
		c-0.904-0.038-2.306-0.236-3.453-1.189c-3.147-2.614-1.9-8.858-1.641-10.382c3.09-18.117-13.764-70.346,2.428-156.432
		c0.989-5.262,1.904-9.594,2.541-12.512c1.493,0.227,3.584,0.537,6.082,0.884c44.72,6.211,78.567,4.491,182.799-0.369
		c0.183-0.009,6.32-0.295,6.499-0.303c1.506,4.256,2.645,7.813,3.412,10.303c23.1,74.856,7.689,141.978,1.997,165.486
		C522.119,397.355,521.396,400.117,520.949,401.786"/>
	
		<rect x="407.63" y="74.901" transform="matrix(0.9505 -0.3106 0.3106 0.9505 -20.3979 133.6971)" clip-path="url(#SVGID_4_)" fill="none" stroke="#020000" stroke-miterlimit="10" width="4" height="112"/>
	
		<rect x="448.921" y="74.901" transform="matrix(0.9539 0.3 -0.3 0.9539 60.0491 -129.2603)" clip-path="url(#SVGID_4_)" fill="none" stroke="#020000" stroke-miterlimit="10" width="4" height="112"/>
	<path clip-path="url(#SVGID_4_)" fill="#2D2A2A" d="M587.263,436.266c0,5.626-4.588,10.188-10.247,10.188c-0.623,0-1.246,0-1.87,0
		c-94.928-0.001-189.854-0.001-284.78,0c-1.383,0-2.766,0-4.149,0c-5.66,0-10.247-4.562-10.247-10.188v-3.33V197.169v-6.529
		c0-5.626,4.587-10.187,10.246-10.187h7.549c92.339,0,184.679,0,277.018,0h6.233c5.659,0,10.247,4.561,10.247,10.187v7.429v233.176
		V436.266z"/>
	<path clip-path="url(#SVGID_4_)" fill="#DBD7D7" d="M555.939,408.061c0,4.207-3.467,7.617-7.744,7.617h-2.149
		c-76.021,0-152.043,0.001-228.064,0c-1.631,0-3.262,0-4.893,0c-3.201,0-5.796-2.552-5.796-5.7v-8.598V220.708
		c0-3.16,0-9.48,5.097-9.48h7.122H544.44h3.422c4.461,0,8.077,3.557,8.077,7.945v5.357c0,57.696,0,115.392,0,173.087V408.061z"/>
	<path clip-path="url(#SVGID_4_)" fill="none" stroke="#020000" stroke-miterlimit="10" d="M555.939,408.061
		c0,4.207-3.467,7.617-7.744,7.617h-2.149c-76.021,0-152.043,0.001-228.064,0c-1.631,0-3.262,0-4.893,0
		c-3.201,0-5.796-2.552-5.796-5.7v-8.598V220.708c0-3.16,0-9.48,5.097-9.48h7.122H544.44h3.422c4.461,0,8.077,3.557,8.077,7.945
		v5.357c0,57.696,0,115.392,0,173.087V408.061z"/>
</g>
<text transform="matrix(1 0 0 1 317.8101 256.4521)"><tspan x="0" y="0" font-family="'LeagueGothic-Regular'" font-size="36" letter-spacing="-1">Y</tspan><tspan x="10.872" y="0" font-family="'LeagueGothic-Regular'" font-size="36">ouTube</tspan></text>
<text transform="matrix(1 0 0 1 317.8101 299.6523)"><tspan x="0" y="0" font-family="'LeagueGothic-Regular'" font-size="36">N</tspan><tspan x="14.22" y="0" font-family="'LeagueGothic-Regular'" font-size="36">e</tspan><tspan x="25.667" y="0" font-family="'LeagueGothic-Regular'" font-size="36">tflix</tspan></text>
<text transform="matrix(1 0 0 1 317.8101 342.8525)"><tspan x="0" y="0" font-family="'LeagueGothic-Regular'" font-size="36">A</tspan><tspan x="13.464" y="0" font-family="'LeagueGothic-Regular'" font-size="36">m</tspan><tspan x="31.211" y="0" font-family="'LeagueGothic-Regular'" font-size="36">az</tspan><tspan x="52.199" y="0" font-family="'LeagueGothic-Regular'" font-size="36">o</tspan><tspan x="63.719" y="0" font-family="'LeagueGothic-Regular'" font-size="36">n</tspan></text>
<text transform="matrix(1 0 0 1 317.8101 386.0518)" font-family="'LeagueGothic-Regular'" font-size="36">Hulu</text>
<g>
	<defs>
		<rect id="SVGID_5_" width="960" height="560"/>
	</defs>
	<clipPath id="SVGID_6_">
		<use xlink:href="#SVGID_5_"  overflow="visible"/>
	</clipPath>
	<rect x="406.282" y="233.396" clip-path="url(#SVGID_6_)" fill="#B71313" width="121.687" height="27.07"/>
	<rect x="406.282" y="273.617" clip-path="url(#SVGID_6_)" fill="#B71313" width="83.284" height="29.323"/>
	<rect x="406.282" y="318.149" clip-path="url(#SVGID_6_)" fill="#B71313" width="52.615" height="29.157"/>
	<rect x="407.9" y="362.516" clip-path="url(#SVGID_6_)" fill="#B71313" width="47.432" height="30.249"/>
</g>
<text transform="matrix(1 0 0 1 412.2798 253.7554)" font-family="'LeagueGothic-Regular'" font-size="24">170.7</text>
<text transform="matrix(1 0 0 1 450.9199 253.7554)"><tspan x="0" y="0" font-family="'LeagueGothic-Regular'" font-size="24">Mill</tspan><tspan x="24.648" y="0" font-family="'LeagueGothic-Regular'" font-size="24">io</tspan><tspan x="36.6" y="0" font-family="'LeagueGothic-Regular'" font-size="24">n</tspan></text>
<text transform="matrix(1 0 0 1 406.2798 295.1318)"><tspan x="0" y="0" font-family="'LeagueGothic-Regular'" font-size="24">114.3 Mill</tspan><tspan x="59.303" y="0" font-family="'LeagueGothic-Regular'" font-size="24">io</tspan><tspan x="71.255" y="0" font-family="'LeagueGothic-Regular'" font-size="24">n</tspan></text>
<text transform="matrix(1 0 0 1 409.6157 339.7949)" font-family="'LeagueGothic-Regular'" font-size="24">65.2 M</text>
<text transform="matrix(1 0 0 1 408.272 388.3232)" font-family="'LeagueGothic-Regular'" font-size="24">59.9 M</text>
<text transform="matrix(1 0 0 1 656.8604 180.333)"><tspan x="0" y="0" font-family="'LeagueGothic-Regular'" font-size="36" letter-spacing="-1">Y</tspan><tspan x="10.872" y="0" font-family="'LeagueGothic-Regular'" font-size="36">ouTube</tspan></text>
<text transform="matrix(1 0 0 1 656.8604 223.5332)"><tspan x="0" y="0" font-family="'LeagueGothic-Regular'" font-size="36">N</tspan><tspan x="14.22" y="0" font-family="'LeagueGothic-Regular'" font-size="36">e</tspan><tspan x="25.667" y="0" font-family="'LeagueGothic-Regular'" font-size="36">tflix</tspan></text>
<text transform="matrix(1 0 0 1 656.8604 266.7329)"><tspan x="0" y="0" font-family="'LeagueGothic-Regular'" font-size="36">A</tspan><tspan x="13.464" y="0" font-family="'LeagueGothic-Regular'" font-size="36">m</tspan><tspan x="31.212" y="0" font-family="'LeagueGothic-Regular'" font-size="36">az</tspan><tspan x="52.199" y="0" font-family="'LeagueGothic-Regular'" font-size="36">o</tspan><tspan x="63.684" y="0" font-family="'LeagueGothic-Regular'" font-size="36">n</tspan></text>
<text transform="matrix(1 0 0 1 656.8604 309.9326)" font-family="'LeagueGothic-Regular'" font-size="36">Hulu</text>
<g>
	<defs>
		<rect id="SVGID_7_" width="960" height="560"/>
	</defs>
	<clipPath id="SVGID_8_">
		<use xlink:href="#SVGID_7_"  overflow="visible"/>
	</clipPath>
	<rect x="756" y="150.557" clip-path="url(#SVGID_8_)" fill="#B71313" width="143.333" height="26.831"/>
	<rect x="756" y="191.336" clip-path="url(#SVGID_8_)" fill="#B71313" width="122.602" height="28.099"/>
	<rect x="756" y="237.667" clip-path="url(#SVGID_8_)" fill="#B71313" width="74.333" height="27.789"/>
	<rect x="756" y="283.196" clip-path="url(#SVGID_8_)" fill="#B71313" width="61.301" height="29.346"/>
</g>
<text transform="matrix(1 0 0 1 763 170.8823)"><tspan x="0" y="0" font-family="'LeagueGothic-Regular'" font-size="24">176.1 Mill</tspan><tspan x="58.367" y="0" font-family="'LeagueGothic-Regular'" font-size="24">i</tspan><tspan x="62.688" y="0" font-family="'LeagueGothic-Regular'" font-size="24">o</tspan><tspan x="70.343" y="0" font-family="'LeagueGothic-Regular'" font-size="24">n</tspan></text>
<text transform="matrix(1 0 0 1 760.3359 216.3145)"><tspan x="0" y="0" font-family="'LeagueGothic-Regular'" font-size="24">126.9 Mill</tspan><tspan x="62.663" y="0" font-family="'LeagueGothic-Regular'" font-size="24">i</tspan><tspan x="66.959" y="0" font-family="'LeagueGothic-Regular'" font-size="24">o</tspan><tspan x="74.639" y="0" font-family="'LeagueGothic-Regular'" font-size="24">n</tspan></text>
<text transform="matrix(1 0 0 1 760.3359 261.6743)" font-family="'LeagueGothic-Regular'" font-size="24">73.2 M</text>
<text transform="matrix(1 0 0 1 760.3359 306.3379)" font-family="'LeagueGothic-Regular'" font-size="24">67.0 M</text>
<text transform="matrix(1 0 0 1 15 537)"><tspan x="0" y="0" font-family="'LeagueGothic-Regular'" font-size="12">*Sou</tspan><tspan x="15.983" y="0" font-family="'LeagueGothic-Regular'" font-size="12">r</tspan><tspan x="18.899" y="0" font-family="'LeagueGothic-Regular'" font-size="12">ce: </tspan><tspan x="30.515" y="0" font-family="'LeagueGothic-Regular'" font-size="12">h</tspan><tspan x="34.499" y="0" font-family="'LeagueGothic-Regular'" font-size="12">t</tspan><tspan x="37.367" y="0" font-family="'LeagueGothic-Regular'" font-size="12">tp://www.f</tspan><tspan x="75.478" y="0" font-family="'LeagueGothic-Regular'" font-size="12">o</tspan><tspan x="79.317" y="0" font-family="'LeagueGothic-Regular'" font-size="12">rb</tspan><tspan x="86.29" y="0" font-family="'LeagueGothic-Regular'" font-size="12">e</tspan><tspan x="90.117" y="0" font-family="'LeagueGothic-Regular'" font-size="12">s.c</tspan><tspan x="99.477" y="0" font-family="'LeagueGothic-Regular'" font-size="12">o</tspan><tspan x="103.305" y="0" font-family="'LeagueGothic-Regular'" font-size="12">m/s</tspan><tspan x="117.213" y="0" font-family="'LeagueGothic-Regular'" font-size="12">i</tspan><tspan x="119.349" y="0" font-family="'LeagueGothic-Regular'" font-size="12">t</tspan><tspan x="122.289" y="0" font-family="'LeagueGothic-Regular'" font-size="12">e</tspan><tspan x="126.104" y="0" font-family="'LeagueGothic-Regular'" font-size="12">s/sh</tspan><tspan x="141.764" y="0" font-family="'LeagueGothic-Regular'" font-size="12">e</tspan><tspan x="145.616" y="0" font-family="'LeagueGothic-Regular'" font-size="12">lb</tspan><tspan x="151.808" y="0" font-family="'LeagueGothic-Regular'" font-size="12">y</tspan><tspan x="155.504" y="0" font-family="'LeagueGothic-Regular'" font-size="12">c</tspan><tspan x="159.236" y="0" font-family="'LeagueGothic-Regular'" font-size="12">a</tspan><tspan x="163.076" y="0" font-family="'LeagueGothic-Regular'" font-size="12">rp</tspan><tspan x="170.048" y="0" font-family="'LeagueGothic-Regular'" font-size="12">e</tspan><tspan x="173.899" y="0" font-family="'LeagueGothic-Regular'" font-size="12">n</tspan><tspan x="177.883" y="0" font-family="'LeagueGothic-Regular'" font-size="12">t</tspan><tspan x="180.823" y="0" font-family="'LeagueGothic-Regular'" font-size="12">e</tspan><tspan x="184.675" y="0" font-family="'LeagueGothic-Regular'" font-size="12">r/2016/07/18/n</tspan><tspan x="238.554" y="0" font-family="'LeagueGothic-Regular'" font-size="12">e</tspan><tspan x="242.37" y="0" font-family="'LeagueGothic-Regular'" font-size="12">tflix-q2-fi</tspan><tspan x="274.529" y="0" font-family="'LeagueGothic-Regular'" font-size="12">n</tspan><tspan x="278.513" y="0" font-family="'LeagueGothic-Regular'" font-size="12">a</tspan><tspan x="282.353" y="0" font-family="'LeagueGothic-Regular'" font-size="12">n</tspan><tspan x="286.397" y="0" font-family="'LeagueGothic-Regular'" font-size="12">c</tspan><tspan x="290.165" y="0" font-family="'LeagueGothic-Regular'" font-size="12">i</tspan><tspan x="292.337" y="0" font-family="'LeagueGothic-Regular'" font-size="12">a</tspan><tspan x="296.177" y="0" font-family="'LeagueGothic-Regular'" font-size="12">l-</tspan><tspan x="300.953" y="0" font-family="'LeagueGothic-Regular'" font-size="12">r</tspan><tspan x="303.869" y="0" font-family="'LeagueGothic-Regular'" font-size="12">e</tspan><tspan x="307.708" y="0" font-family="'LeagueGothic-Regular'" font-size="12">p</tspan><tspan x="311.729" y="0" font-family="'LeagueGothic-Regular'" font-size="12">o</tspan><tspan x="315.556" y="0" font-family="'LeagueGothic-Regular'" font-size="12">rt/#2bdd1</tspan><tspan x="352.023" y="0" font-family="'LeagueGothic-Regular'" font-size="12">f</tspan><tspan x="354.735" y="0" font-family="'LeagueGothic-Regular'" font-size="12">fee06a* </tspan></text>
</svg>
