<?xml version="1.0" encoding="utf-8"?>
<!-- Generator: Adobe Illustrator 20.1.0, SVG Export Plug-In . SVG Version: 6.00 Build 0)  -->
<svg version="1.1" id="Layer_1" xmlns="http://www.w3.org/2000/svg" xmlns:xlink="http://www.w3.org/1999/xlink" x="0px" y="0px"
	 viewBox="0 0 960 560" style="enable-background:new 0 0 960 560;" xml:space="preserve">
<style type="text/css">
	.st0{clip-path:url(#SVGID_2_);fill:none;stroke:#D9D9D9;stroke-linejoin:round;stroke-miterlimit:10;}
	.st1{clip-path:url(#SVGID_4_);fill:#5B9BD5;}
	.st2{clip-path:url(#SVGID_6_);fill:none;stroke:#FFFFFF;stroke-width:2;stroke-linejoin:round;stroke-miterlimit:10;}
	.st3{clip-path:url(#SVGID_8_);fill:#CC2D29;}
	.st4{clip-path:url(#SVGID_10_);fill:none;stroke:#D9D9D9;stroke-linejoin:round;stroke-miterlimit:10;}
	.st5{clip-path:url(#SVGID_12_);fill:none;stroke:#D9D9D9;stroke-linejoin:round;stroke-miterlimit:10;}
	.st6{clip-path:url(#SVGID_14_);}
	.st7{fill:#595959;}
	.st8{font-family:'Georgia';}
	.st9{font-size:14.475px;}
	.st10{clip-path:url(#SVGID_16_);}
	.st11{clip-path:url(#SVGID_18_);}
	.st12{clip-path:url(#SVGID_20_);}
	.st13{clip-path:url(#SVGID_22_);}
	.st14{clip-path:url(#SVGID_24_);}
	.st15{clip-path:url(#SVGID_26_);}
	.st16{clip-path:url(#SVGID_28_);}
	.st17{clip-path:url(#SVGID_30_);}
	.st18{clip-path:url(#SVGID_32_);}
	.st19{clip-path:url(#SVGID_34_);}
	.st20{clip-path:url(#SVGID_36_);}
	.st21{clip-path:url(#SVGID_38_);}
	.st22{clip-path:url(#SVGID_40_);}
	.st23{clip-path:url(#SVGID_42_);}
	.st24{clip-path:url(#SVGID_44_);}
	.st25{clip-path:url(#SVGID_46_);}
	.st26{clip-path:url(#SVGID_48_);}
	.st27{clip-path:url(#SVGID_50_);}
	.st28{clip-path:url(#SVGID_52_);}
	.st29{clip-path:url(#SVGID_54_);}
	.st30{clip-path:url(#SVGID_56_);}
	.st31{clip-path:url(#SVGID_58_);}
	.st32{clip-path:url(#SVGID_60_);}
	.st33{clip-path:url(#SVGID_62_);}
	.st34{clip-path:url(#SVGID_64_);}
	.st35{clip-path:url(#SVGID_66_);}
	.st36{clip-path:url(#SVGID_68_);}
	.st37{clip-path:url(#SVGID_70_);}
	.st38{clip-path:url(#SVGID_72_);}
	.st39{clip-path:url(#SVGID_74_);}
	.st40{clip-path:url(#SVGID_76_);}
	.st41{clip-path:url(#SVGID_78_);}
	.st42{clip-path:url(#SVGID_80_);}
	.st43{clip-path:url(#SVGID_82_);}
	.st44{clip-path:url(#SVGID_84_);}
	.st45{clip-path:url(#SVGID_86_);}
	.st46{clip-path:url(#SVGID_88_);}
	.st47{clip-path:url(#SVGID_90_);}
	.st48{clip-path:url(#SVGID_92_);}
	.st49{clip-path:url(#SVGID_94_);}
	.st50{clip-path:url(#SVGID_96_);}
	.st51{fill:#0A0101;}
	.st52{font-family:'Georgia-Bold';}
	.st53{font-size:28.95px;}
	.st54{clip-path:url(#SVGID_98_);fill:none;stroke:#D9D9D9;stroke-linejoin:round;stroke-miterlimit:10;}
</style>
<g>
	<g>
		<defs>
			<rect id="SVGID_1_" x="170" y="79" width="579" height="347.4"/>
		</defs>
		<clipPath id="SVGID_2_">
			<use xlink:href="#SVGID_1_"  style="overflow:visible;"/>
		</clipPath>
		<path class="st0" d="M258.4,269.6"/>
	</g>
</g>
<g>
	<g>
		<defs>
			<polyline id="SVGID_3_" points="257.6,143.3 257.6,284.9 728,284.9 728,143.3 			"/>
		</defs>
		<clipPath id="SVGID_4_">
			<use xlink:href="#SVGID_3_"  style="overflow:visible;"/>
		</clipPath>
		<path class="st1" d="M353.3,281.6h22.5v1.6h-22.5V281.6z M276.1,281.6h22.5v1.6h-22.5V281.6z"/>
	</g>
	<g>
		<defs>
			<polyline id="SVGID_5_" points="257.6,143.3 257.6,284.9 728,284.9 728,143.3 			"/>
		</defs>
		<clipPath id="SVGID_6_">
			<use xlink:href="#SVGID_5_"  style="overflow:visible;"/>
		</clipPath>
		<path class="st2" d="M353.3,281.6h22.5v1.6h-22.5V281.6z M276.1,281.6h22.5v1.6h-22.5V281.6z"/>
	</g>
</g>
<g>
	<g>
		<defs>
			<polyline id="SVGID_7_" points="257.6,143.3 257.6,284.9 728,284.9 728,143.3 			"/>
		</defs>
		<clipPath id="SVGID_8_">
			<use xlink:href="#SVGID_7_"  style="overflow:visible;"/>
		</clipPath>
		<path class="st3" d="M674.8,241.4h29.3v41.8h-29.3V241.4z M593.9,235h33.5v48.2h-33.5V235z M515.1,229.7h33.5v54.7h-33.5V229.7z
			 M433.2,229.7h34.3v54.7h-34.3V229.7z M357.2,175.5h37.3v107.8h-37.3V175.5z M281.4,162.6h39.7v120.6h-39.7V162.6z"/>
	</g>
</g>
<g>
	<g>
		<defs>
			<rect id="SVGID_9_" x="170" y="79" width="579" height="347.4"/>
		</defs>
		<clipPath id="SVGID_10_">
			<use xlink:href="#SVGID_9_"  style="overflow:visible;"/>
		</clipPath>
		<path class="st4" d="M258.4,284.1"/>
	</g>
	<g>
		<defs>
			<rect id="SVGID_11_" x="170" y="79" width="579" height="347.4"/>
		</defs>
		<clipPath id="SVGID_12_">
			<use xlink:href="#SVGID_11_"  style="overflow:visible;"/>
		</clipPath>
		<path class="st5" d="M259.2,313"/>
	</g>
	<g>
		<defs>
			<rect id="SVGID_13_" x="170" y="79" width="579" height="347.4"/>
		</defs>
		<clipPath id="SVGID_14_">
			<use xlink:href="#SVGID_13_"  style="overflow:visible;"/>
		</clipPath>
		<g class="st6">
			<text transform="matrix(1 0 0 1 286.3304 307.8008)" class="st7 st8 st9">S</text>
		</g>
	</g>
	<g>
		<defs>
			<rect id="SVGID_15_" x="170" y="79" width="579" height="347.4"/>
		</defs>
		<clipPath id="SVGID_16_">
			<use xlink:href="#SVGID_15_"  style="overflow:visible;"/>
		</clipPath>
		<g class="st10">
			<text transform="matrix(1 0 0 1 295.9798 307.8008)" class="st7 st8 st9">-</text>
		</g>
	</g>
	<g>
		<defs>
			<rect id="SVGID_17_" x="170" y="79" width="579" height="347.4"/>
		</defs>
		<clipPath id="SVGID_18_">
			<use xlink:href="#SVGID_17_"  style="overflow:visible;"/>
		</clipPath>
		<g class="st11">
			<text transform="matrix(1 0 0 1 300.805 308.3789)" class="st7 st8 st9">1</text>
		</g>
	</g>
	<g>
		<defs>
			<rect id="SVGID_19_" x="170" y="79" width="579" height="347.4"/>
		</defs>
		<clipPath id="SVGID_20_">
			<use xlink:href="#SVGID_19_"  style="overflow:visible;"/>
		</clipPath>
		<g class="st12">
			<text transform="matrix(1 0 0 1 364.5071 307.8008)" class="st7 st8 st9">S</text>
		</g>
	</g>
	<g>
		<defs>
			<rect id="SVGID_21_" x="170" y="79" width="579" height="347.4"/>
		</defs>
		<clipPath id="SVGID_22_">
			<use xlink:href="#SVGID_21_"  style="overflow:visible;"/>
		</clipPath>
		<g class="st13">
			<text transform="matrix(1 0 0 1 374.1566 307.8008)" class="st7 st8 st9">-</text>
		</g>
	</g>
	<g>
		<defs>
			<rect id="SVGID_23_" x="170" y="79" width="579" height="347.4"/>
		</defs>
		<clipPath id="SVGID_24_">
			<use xlink:href="#SVGID_23_"  style="overflow:visible;"/>
		</clipPath>
		<g class="st14">
			<text transform="matrix(1 0 0 1 378.9827 307.8008)" class="st7 st8 st9">4</text>
		</g>
	</g>
	<g>
		<defs>
			<rect id="SVGID_25_" x="170" y="79" width="579" height="347.4"/>
		</defs>
		<clipPath id="SVGID_26_">
			<use xlink:href="#SVGID_25_"  style="overflow:visible;"/>
		</clipPath>
		<g class="st15">
			<text transform="matrix(1 0 0 1 442.6849 307.8008)" class="st7 st8 st9">S</text>
		</g>
	</g>
	<g>
		<defs>
			<rect id="SVGID_27_" x="170" y="79" width="579" height="347.4"/>
		</defs>
		<clipPath id="SVGID_28_">
			<use xlink:href="#SVGID_27_"  style="overflow:visible;"/>
		</clipPath>
		<g class="st16">
			<text transform="matrix(1 0 0 1 452.3333 307.8008)" class="st7 st8 st9">-</text>
		</g>
	</g>
	<g>
		<defs>
			<rect id="SVGID_29_" x="170" y="79" width="579" height="347.4"/>
		</defs>
		<clipPath id="SVGID_30_">
			<use xlink:href="#SVGID_29_"  style="overflow:visible;"/>
		</clipPath>
		<g class="st17">
			<text transform="matrix(1 0 0 1 457.1595 307.8008)" class="st7 st8 st9">2</text>
		</g>
	</g>
	<g>
		<defs>
			<rect id="SVGID_31_" x="170" y="79" width="579" height="347.4"/>
		</defs>
		<clipPath id="SVGID_32_">
			<use xlink:href="#SVGID_31_"  style="overflow:visible;"/>
		</clipPath>
		<g class="st18">
			<text transform="matrix(1 0 0 1 520.8616 307.8008)" class="st7 st8 st9">S</text>
		</g>
	</g>
	<g>
		<defs>
			<rect id="SVGID_33_" x="170" y="79" width="579" height="347.4"/>
		</defs>
		<clipPath id="SVGID_34_">
			<use xlink:href="#SVGID_33_"  style="overflow:visible;"/>
		</clipPath>
		<g class="st19">
			<text transform="matrix(1 0 0 1 530.512 307.8008)" class="st7 st8 st9">-</text>
		</g>
	</g>
	<g>
		<defs>
			<rect id="SVGID_35_" x="170" y="79" width="579" height="347.4"/>
		</defs>
		<clipPath id="SVGID_36_">
			<use xlink:href="#SVGID_35_"  style="overflow:visible;"/>
		</clipPath>
		<g class="st20">
			<text transform="matrix(1 0 0 1 535.3362 307.8008)" class="st7 st8 st9">1</text>
		</g>
	</g>
	<g>
		<defs>
			<rect id="SVGID_37_" x="170" y="79" width="579" height="347.4"/>
		</defs>
		<clipPath id="SVGID_38_">
			<use xlink:href="#SVGID_37_"  style="overflow:visible;"/>
		</clipPath>
		<g class="st21">
			<text transform="matrix(1 0 0 1 599.0384 307.8008)" class="st7 st8 st9">S</text>
		</g>
	</g>
	<g>
		<defs>
			<rect id="SVGID_39_" x="170" y="79" width="579" height="347.4"/>
		</defs>
		<clipPath id="SVGID_40_">
			<use xlink:href="#SVGID_39_"  style="overflow:visible;"/>
		</clipPath>
		<g class="st22">
			<text transform="matrix(1 0 0 1 608.6888 307.8008)" class="st7 st8 st9">-</text>
		</g>
	</g>
	<g>
		<defs>
			<rect id="SVGID_41_" x="170" y="79" width="579" height="347.4"/>
		</defs>
		<clipPath id="SVGID_42_">
			<use xlink:href="#SVGID_41_"  style="overflow:visible;"/>
		</clipPath>
		<g class="st23">
			<text transform="matrix(1 0 0 1 613.514 307.8008)" class="st7 st8 st9">1</text>
		</g>
	</g>
	<g>
		<defs>
			<rect id="SVGID_43_" x="170" y="79" width="579" height="347.4"/>
		</defs>
		<clipPath id="SVGID_44_">
			<use xlink:href="#SVGID_43_"  style="overflow:visible;"/>
		</clipPath>
		<g class="st24">
			<text transform="matrix(1 0 0 1 677.2161 307.8008)" class="st7 st8 st9">S</text>
		</g>
	</g>
	<g>
		<defs>
			<rect id="SVGID_45_" x="170" y="79" width="579" height="347.4"/>
		</defs>
		<clipPath id="SVGID_46_">
			<use xlink:href="#SVGID_45_"  style="overflow:visible;"/>
		</clipPath>
		<g class="st25">
			<text transform="matrix(1 0 0 1 686.8665 307.8008)" class="st7 st8 st9">-</text>
		</g>
	</g>
	<g>
		<defs>
			<rect id="SVGID_47_" x="170" y="79" width="579" height="347.4"/>
		</defs>
		<clipPath id="SVGID_48_">
			<use xlink:href="#SVGID_47_"  style="overflow:visible;"/>
		</clipPath>
		<g class="st26">
			<text transform="matrix(1 0 0 1 691.6907 307.8008)" class="st7 st8 st9">4</text>
		</g>
	</g>
	<g>
		<defs>
			<rect id="SVGID_49_" x="170" y="79" width="579" height="347.4"/>
		</defs>
		<clipPath id="SVGID_50_">
			<use xlink:href="#SVGID_49_"  style="overflow:visible;"/>
		</clipPath>
		<g class="st27">
			<text transform="matrix(1 0 0 1 258.9837 336.1523)" class="st7 st8 st9">F</text>
			<text transform="matrix(1 0 0 1 266.8655 336.1523)" class="st7 st8 st9">uller</text>
			<text transform="matrix(1 0 0 1 296.4583 336.1523)" class="st7 st8 st9">H</text>
			<text transform="matrix(1 0 0 1 307.3948 336.1523)" class="st7 st8 st9">ou</text>
			<text transform="matrix(1 0 0 1 323.4788 336.1523)" class="st7 st8 st9">s</text>
			<text transform="matrix(1 0 0 1 330.555 336.1523)" class="st7 st8 st9">e</text>
		</g>
	</g>
	<g>
		<defs>
			<rect id="SVGID_51_" x="170" y="79" width="579" height="347.4"/>
		</defs>
		<clipPath id="SVGID_52_">
			<use xlink:href="#SVGID_51_"  style="overflow:visible;"/>
		</clipPath>
		<g class="st28">
			<text transform="matrix(1 0 0 1 348.5491 332.8711)" class="st7 st8 st9">Orange</text>
			<text transform="matrix(1 0 0 1 395.512 332.8711)" class="st7 st8 st9"> </text>
			<text transform="matrix(1 0 0 1 399.6946 332.8711)" class="st7 st8 st9">i</text>
			<text transform="matrix(1 0 0 1 404.0374 332.8711)" class="st7 st8 st9">s</text>
			<text transform="matrix(1 0 0 1 411.1136 332.8711)" class="st7 st8 st9"> </text>
		</g>
	</g>
	<g>
		<defs>
			<rect id="SVGID_53_" x="170" y="79" width="579" height="347.4"/>
		</defs>
		<clipPath id="SVGID_54_">
			<use xlink:href="#SVGID_53_"  style="overflow:visible;"/>
		</clipPath>
		<g class="st29">
			<text transform="matrix(1 0 0 1 351.6732 348.9209)" class="st7 st8 st9">t</text>
			<text transform="matrix(1 0 0 1 357.4632 348.9209)" class="st7 st8 st9">he</text>
			<text transform="matrix(1 0 0 1 372.9036 348.9209)" class="st7 st8 st9"> N</text>
			<text transform="matrix(1 0 0 1 385.931 348.9209)" class="st7 st8 st9">e</text>
			<text transform="matrix(1 0 0 1 392.846 348.9209)" class="st7 st8 st9">w</text>
			<text transform="matrix(1 0 0 1 402.8187 348.9209)" class="st7 st8 st9"> </text>
		</g>
	</g>
	<g>
		<defs>
			<rect id="SVGID_55_" x="170" y="79" width="579" height="347.4"/>
		</defs>
		<clipPath id="SVGID_56_">
			<use xlink:href="#SVGID_55_"  style="overflow:visible;"/>
		</clipPath>
		<g class="st30">
			<text transform="matrix(1 0 0 1 358.0735 364.1826)" class="st7 st8 st9">Bla</text>
			<text transform="matrix(1 0 0 1 378.9827 364.1826)" class="st7 st8 st9">c</text>
			<text transform="matrix(1 0 0 1 386.3812 364.1826)" class="st7 st8 st9">k</text>
		</g>
	</g>
	<g>
		<defs>
			<rect id="SVGID_57_" x="170" y="79" width="579" height="347.4"/>
		</defs>
		<clipPath id="SVGID_58_">
			<use xlink:href="#SVGID_57_"  style="overflow:visible;"/>
		</clipPath>
		<g class="st31">
			<text transform="matrix(1 0 0 1 426.6009 336.1523)" class="st7 st8 st9">M</text>
			<text transform="matrix(1 0 0 1 439.3069 336.1523)" class="st7 st8 st9">ar</text>
			<text transform="matrix(1 0 0 1 452.4944 336.1523)" class="st7 st8 st9">v</text>
			<text transform="matrix(1 0 0 1 460.3763 336.1523)" class="st7 st8 st9">el</text>
			<text transform="matrix(1 0 0 1 471.6341 336.1523)" class="st7 st8 st9">&apos;</text>
			<text transform="matrix(1 0 0 1 475.1732 336.1523)" class="st7 st8 st9">s</text>
			<text transform="matrix(1 0 0 1 482.2493 336.1523)" class="st7 st8 st9"> </text>
		</g>
	</g>
	<g>
		<defs>
			<rect id="SVGID_59_" x="170" y="79" width="579" height="347.4"/>
		</defs>
		<clipPath id="SVGID_60_">
			<use xlink:href="#SVGID_59_"  style="overflow:visible;"/>
		</clipPath>
		<g class="st32">
			<text transform="matrix(1 0 0 1 423.3841 353.8438)" class="st7 st8 st9">D</text>
			<text transform="matrix(1 0 0 1 433.3558 353.8438)" class="st7 st8 st9">arede</text>
			<text transform="matrix(1 0 0 1 468.8997 353.8438)" class="st7 st8 st9">v</text>
			<text transform="matrix(1 0 0 1 476.9417 353.8438)" class="st7 st8 st9">il</text>
		</g>
	</g>
	<g>
		<defs>
			<rect id="SVGID_61_" x="170" y="79" width="579" height="347.4"/>
		</defs>
		<clipPath id="SVGID_62_">
			<use xlink:href="#SVGID_61_"  style="overflow:visible;"/>
		</clipPath>
		<g class="st33">
			<text transform="matrix(1 0 0 1 504.7786 336.1523)" class="st7 st8 st9">S</text>
			<text transform="matrix(1 0 0 1 512.8196 336.1523)" class="st7 st8 st9">t</text>
			<text transform="matrix(1 0 0 1 518.7708 336.1523)" class="st7 st8 st9">ranger </text>
		</g>
	</g>
	<g>
		<defs>
			<rect id="SVGID_63_" x="170" y="79" width="579" height="347.4"/>
		</defs>
		<clipPath id="SVGID_64_">
			<use xlink:href="#SVGID_63_"  style="overflow:visible;"/>
		</clipPath>
		<g class="st34">
			<text transform="matrix(1 0 0 1 511.2122 353.8438)" class="st7 st8 st9">T</text>
			<text transform="matrix(1 0 0 1 519.4144 353.8438)" class="st7 st8 st9">hings</text>
		</g>
	</g>
	<g>
		<defs>
			<rect id="SVGID_65_" x="170" y="79" width="579" height="347.4"/>
		</defs>
		<clipPath id="SVGID_66_">
			<use xlink:href="#SVGID_65_"  style="overflow:visible;"/>
		</clipPath>
		<g class="st35">
			<text transform="matrix(1 0 0 1 582.9515 336.1523)" class="st7 st8 st9">M</text>
			<text transform="matrix(1 0 0 1 595.6575 336.1523)" class="st7 st8 st9">ar</text>
			<text transform="matrix(1 0 0 1 608.846 336.1523)" class="st7 st8 st9">v</text>
			<text transform="matrix(1 0 0 1 616.7269 336.1523)" class="st7 st8 st9">el</text>
			<text transform="matrix(1 0 0 1 627.9847 336.1523)" class="st7 st8 st9">&apos;</text>
			<text transform="matrix(1 0 0 1 631.5228 336.1523)" class="st7 st8 st9">s</text>
			<text transform="matrix(1 0 0 1 638.5989 336.1523)" class="st7 st8 st9"> </text>
		</g>
	</g>
	<g>
		<defs>
			<rect id="SVGID_67_" x="170" y="79" width="579" height="347.4"/>
		</defs>
		<clipPath id="SVGID_68_">
			<use xlink:href="#SVGID_67_"  style="overflow:visible;"/>
		</clipPath>
		<g class="st36">
			<text transform="matrix(1 0 0 1 576.5189 353.8438)" class="st7 st8 st9">Lu</text>
			<text transform="matrix(1 0 0 1 593.5677 353.8438)" class="st7 st8 st9">k</text>
			<text transform="matrix(1 0 0 1 602.0911 353.8438)" class="st7 st8 st9">e</text>
			<text transform="matrix(1 0 0 1 609.1673 353.8438)" class="st7 st8 st9"> C</text>
			<text transform="matrix(1 0 0 1 620.265 353.8438)" class="st7 st8 st9">age</text>
		</g>
	</g>
	<g>
		<defs>
			<rect id="SVGID_69_" x="170" y="79" width="579" height="347.4"/>
		</defs>
		<clipPath id="SVGID_70_">
			<use xlink:href="#SVGID_69_"  style="overflow:visible;"/>
		</clipPath>
		<g class="st37">
			<text transform="matrix(1 0 0 1 659.5198 336.1523)" class="st7 st8 st9">H</text>
			<text transform="matrix(1 0 0 1 670.4573 336.1523)" class="st7 st8 st9">ou</text>
			<text transform="matrix(1 0 0 1 686.7015 336.1523)" class="st7 st8 st9">s</text>
			<text transform="matrix(1 0 0 1 693.7776 336.1523)" class="st7 st8 st9">e</text>
			<text transform="matrix(1 0 0 1 700.6937 336.1523)" class="st7 st8 st9"> </text>
			<text transform="matrix(1 0 0 1 705.0364 336.1523)" class="st7 st8 st9">o</text>
			<text transform="matrix(1 0 0 1 712.7562 336.1523)" class="st7 st8 st9">f</text>
			<text transform="matrix(1 0 0 1 718.2249 336.1523)" class="st7 st8 st9"> </text>
		</g>
	</g>
	<g>
		<defs>
			<rect id="SVGID_71_" x="170" y="79" width="579" height="347.4"/>
		</defs>
		<clipPath id="SVGID_72_">
			<use xlink:href="#SVGID_71_"  style="overflow:visible;"/>
		</clipPath>
		<g class="st38">
			<text transform="matrix(1 0 0 1 669.1702 353.8438)" class="st7 st8 st9">C</text>
			<text transform="matrix(1 0 0 1 677.6946 353.8438)" class="st7 st8 st9">ards</text>
		</g>
	</g>
	<g>
		<defs>
			<rect id="SVGID_73_" x="170" y="79" width="579" height="347.4"/>
		</defs>
		<clipPath id="SVGID_74_">
			<use xlink:href="#SVGID_73_"  style="overflow:visible;"/>
		</clipPath>
		<g class="st39">
			<text transform="matrix(1 0 0 1 235.9637 289.7451)" class="st7 st8 st9">0</text>
		</g>
	</g>
	<g>
		<defs>
			<rect id="SVGID_75_" x="170" y="79" width="579" height="347.4"/>
		</defs>
		<clipPath id="SVGID_76_">
			<use xlink:href="#SVGID_75_"  style="overflow:visible;"/>
		</clipPath>
		<g class="st40">
			<text transform="matrix(1 0 0 1 187.6903 275.8135)" class="st7 st8 st9">1000000</text>
		</g>
	</g>
	<g>
		<defs>
			<rect id="SVGID_77_" x="170" y="79" width="579" height="347.4"/>
		</defs>
		<clipPath id="SVGID_78_">
			<use xlink:href="#SVGID_77_"  style="overflow:visible;"/>
		</clipPath>
		<g class="st41">
			<text transform="matrix(1 0 0 1 187.6903 261.8809)" class="st7 st8 st9">2000000</text>
		</g>
	</g>
	<g>
		<defs>
			<rect id="SVGID_79_" x="170" y="79" width="579" height="347.4"/>
		</defs>
		<clipPath id="SVGID_80_">
			<use xlink:href="#SVGID_79_"  style="overflow:visible;"/>
		</clipPath>
		<g class="st42">
			<text transform="matrix(1 0 0 1 187.6903 247.9482)" class="st7 st8 st9">3000000</text>
		</g>
	</g>
	<g>
		<defs>
			<rect id="SVGID_81_" x="170" y="79" width="579" height="347.4"/>
		</defs>
		<clipPath id="SVGID_82_">
			<use xlink:href="#SVGID_81_"  style="overflow:visible;"/>
		</clipPath>
		<g class="st43">
			<text transform="matrix(1 0 0 1 187.6903 234.0156)" class="st7 st8 st9">4000000</text>
		</g>
	</g>
	<g>
		<defs>
			<rect id="SVGID_83_" x="170" y="79" width="579" height="347.4"/>
		</defs>
		<clipPath id="SVGID_84_">
			<use xlink:href="#SVGID_83_"  style="overflow:visible;"/>
		</clipPath>
		<g class="st44">
			<text transform="matrix(1 0 0 1 187.6903 220.084)" class="st7 st8 st9">5000000</text>
		</g>
	</g>
	<g>
		<defs>
			<rect id="SVGID_85_" x="170" y="79" width="579" height="347.4"/>
		</defs>
		<clipPath id="SVGID_86_">
			<use xlink:href="#SVGID_85_"  style="overflow:visible;"/>
		</clipPath>
		<g class="st45">
			<text transform="matrix(1 0 0 1 187.6903 206.1514)" class="st7 st8 st9">6000000</text>
		</g>
	</g>
	<g>
		<defs>
			<rect id="SVGID_87_" x="170" y="79" width="579" height="347.4"/>
		</defs>
		<clipPath id="SVGID_88_">
			<use xlink:href="#SVGID_87_"  style="overflow:visible;"/>
		</clipPath>
		<g class="st46">
			<text transform="matrix(1 0 0 1 187.6903 192.2188)" class="st7 st8 st9">7000000</text>
		</g>
	</g>
	<g>
		<defs>
			<rect id="SVGID_89_" x="170" y="79" width="579" height="347.4"/>
		</defs>
		<clipPath id="SVGID_90_">
			<use xlink:href="#SVGID_89_"  style="overflow:visible;"/>
		</clipPath>
		<g class="st47">
			<text transform="matrix(1 0 0 1 187.6903 178.2861)" class="st7 st8 st9">8000000</text>
		</g>
	</g>
	<g>
		<defs>
			<rect id="SVGID_91_" x="170" y="79" width="579" height="347.4"/>
		</defs>
		<clipPath id="SVGID_92_">
			<use xlink:href="#SVGID_91_"  style="overflow:visible;"/>
		</clipPath>
		<g class="st48">
			<text transform="matrix(1 0 0 1 187.6903 164.3535)" class="st7 st8 st9">9000000</text>
		</g>
	</g>
	<g>
		<defs>
			<rect id="SVGID_93_" x="170" y="79" width="579" height="347.4"/>
		</defs>
		<clipPath id="SVGID_94_">
			<use xlink:href="#SVGID_93_"  style="overflow:visible;"/>
		</clipPath>
		<g class="st49">
			<text transform="matrix(1 0 0 1 180.4442 150.4219)" class="st7 st8 st9">10000000</text>
		</g>
	</g>
	<g>
		<defs>
			<rect id="SVGID_95_" x="170" y="79" width="579" height="347.4"/>
		</defs>
		<clipPath id="SVGID_96_">
			<use xlink:href="#SVGID_95_"  style="overflow:visible;"/>
		</clipPath>
		<g class="st50">
			<text transform="matrix(1 0 0 1 174.1263 104.4863)" class="st51 st52 st53">Top 7 Original Netflix’s Shows</text>
		</g>
	</g>
	<g>
		<defs>
			<rect id="SVGID_97_" x="170" y="79" width="579" height="347.4"/>
		</defs>
		<clipPath id="SVGID_98_">
			<use xlink:href="#SVGID_97_"  style="overflow:visible;"/>
		</clipPath>
		<polyline class="st54" points="170,69.8 747.3,69.8 1112.4,799.7 535,799.7 		"/>
	</g>
</g>
</svg>
